<svg xmlns="http://www.w3.org/2000/svg" width="521.7158" height="278.2666" viewBox="0 0 521.7158 278.2666">
  <g id="Layer_2" data-name="Layer 2">
    <g id="LOGO">
      <path d="M279.3872,208.0801a7.5245,7.5245,0,0,0,.7808.6962c.0761-.1513.1347-.2539.1821-.3613a29.18544,29.18544,0,0,0,.7896-3.0986c.8515-1.1807,1.9111-2.6641,2.7646-3.9053q-.7221,1.52055-1.4443,3.0381c-.6187,1.2939-.9785,4.3223-1.4644,5.6641a.38723.38723,0,0,0,.0786.3671,5.747,5.747,0,0,1,.7803,1.7598c.0117.0567.0293.1113.043.168a6.79691,6.79691,0,0,0,.3872,1.416,13.60992,13.60992,0,0,1-.3623,5.4023l3.1528-6.1015,3.689-1.8272,6.9633-8.2705c-1.1508.4932-2.1621.7891-2.1796.3145-.0328-.8526.0053-5.8272.0053-5.8272l-.269-7.4277s-.0918-4.1572-.0918-6.9043q.00435-.64455.0098-1.2881c.0092-.4316.0214-.7725.0429-.9443.0157-.1289.0034-.1358-.0346-.0401q.02115-2.934.0468-5.8672c.0161-1.4755.0562-2.956.0542-4.4345a13.68958,13.68958,0,0,1,.0987-2.2276c.1777-1.0752.2827-2.164.3984-3.25L286.835,181.333l1.709-6.3506c.0063-.0381.0122-.0752.0185-.1123.6841-3.8965,2.2407-7.6729,2.9585-11.5635q.457-2.47845,1.0415-4.9209c.0371-.1611.0684-.3242.1079-.4853.1148-.4737.2393-.9463.3574-1.42-.1753.6309-.3134,1.2696-.4653,1.9053-.2959,1.2754-.5498,2.5596-.8213,3.8447-.0762.3565-.1553.7149-.2202,1.0762-.1079.6026-.2139,1.2051-.3218,1.8076l4.2671-15.8564c-.0044-.043.0025-.0869-.0044-.1299l.001-.0019c.1353-.5303,1.2959-8.8721,1.2959-8.8721s-3.8071,11.5517-4.2256,12.8847c-.2656.8389-1.0889,1.2833-1.3384,2.1241-.5825,1.9658-8.3344,26.5781-8.4267,27.0302-.128.6221-1.6782,3.4082-1.7925,4.0313-.3555,1.9834-.3086,4.499-.8955,6.4297-1.208,3.9404-1.1992,8.6748-1.4712,9.4863-.2046.5986-.4297,2.834-.6411,3.4317-.1192.331-.2363.664-.3555,1.0048.0767.0528.1328.0987.1958.1328A5.14578,5.14578,0,0,1,279.3872,208.0801Zm-40.0303,45.4804a1.82091,1.82091,0,0,0-.2954-.7676,1.56411,1.56411,0,0,1-.2251-.4951c-.186-.7705-.3579-1.5439-.521-2.3213a.62328.62328,0,0,0-.2426-.3847,15.51671,15.51671,0,0,1-2.5044-2.8379c-.1001-.125-.2007-.249-.3008-.374.3047-.0147.2788-.0713.5644-.1534l-.2378-.2968-2.6479-7.1934,4.8467,8.2949.0141.0157a5.72053,5.72053,0,0,0-.1328-1.0987c-.3418-1.6846-.6982-3.3662-1.0259-5.0547-.1445-.7402-.2426-1.4931-.3515-2.2383-.1148-.7968-.2173-1.5966-.3277-2.3945-.0698-.4931-.1699-.9873-.2182-1.4834-.083-.8652-.146-1.7256-.2022-2.5928-.0879-1.4013-.1655-1.1611-.2431-2.5634-.0244-.4502-.0283-.9004-.0337-1.3545-.0025-.1455-.0269-.2637-.1778-.3252a7.37138,7.37138,0,0,1-2.0605-1.4082c-.1538-.1358-.2998-.2803-.4497-.4199-1.2197-7.2022-3.7109-7.5586-5.1729-10.4209-2.3359-1.4971-5.5034-3.6006-5.5034-3.6006l-4.438-3.6797s1.1128,2.4443,2.6582,5.8457c.1939.5459.3853,1.0928.5855,1.6377.4722,1.2812.9585,2.5547,1.4331,3.8359.3227.8643.6406,1.7344.9604,2.6035q.7962,2.1666,1.5894,4.3272c.2417.6631.4565,1.3379.7139,1.9971.5859,1.4853,1.188,2.9648,1.7841,4.4472.0943.2373.1685.4824.271.7188.2486.583.5093,1.1592.7603,1.7383.3442.7949.6836,1.5937,1.0234,2.3876a14.06409,14.06409,0,0,1,.5508,1.3145c.2871.8926.5459,1.7949.7891,2.7021a21.82622,21.82622,0,0,0,1.0488,2.96,3.48408,3.48408,0,0,0,.2061.3877,22.27931,22.27931,0,0,0,1.8964,2.6865c.1719.2032.3599.3955.5215.6055.7886,1.0215,1.5694,2.0478,2.3589,3.0654q.74925.9669,1.5171,1.9209c.4375.5391.8877,1.0674,1.334,1.5977a3.45551,3.45551,0,0,0,.2519.2383.34721.34721,0,0,1,.0655-.0381c-.0274-.1006-.0542-.2002-.0791-.2979C239.5889,254.584,239.438,254.0761,239.3569,253.5605ZM217.5405,148.584a4.85668,4.85668,0,0,1-.0214.6201,2.50772,2.50772,0,0,0,.0888.9795,4.1281,4.1281,0,0,1,.1519,1.2275q-.03,2.5503-.0362,5.0967a4.89553,4.89553,0,0,0,.0835,1.1328c.2168.9111.4366,1.8291.7422,2.7148.3408.9864.6861,1.9727,1.0279,2.959a13.00384,13.00384,0,0,0,.1709,2.1963l2.1596,7.084-4.0425-9.6777v1.1347c-.0019.6729-.0063,1.3428-.0044,2.0127a3.88928,3.88928,0,0,0,.0406.9102c.1377.5547.2607,1.1142.4101,1.666l.9453,1.9434,1.6397,4.8642,3.6011,9.291-6.4815-9.7978c.002.1894.0025.3769.0103.5674.0337.7324.0708,1.4619.1089,2.1943a6.74759,6.74759,0,0,0,.0678.7266c.0581.3877.1729.7646.2002,1.1543a13.146,13.146,0,0,0,.1436,1.4179c.1787,1.0176.3154,2.044.4975,3.0606.1314.7344.3282,1.4531.4722,2.1865.2271,1.1475.4082,2.3057.6602,3.4492.0205.0918.0293.1817.0473.2725a33.99952,33.99952,0,0,0-.0478,3.665.76488.76488,0,0,0,.0747.3994c-.2739.3116.1045,7.6035.1045,7.6035s-.2705,1.4444.4365,6.0801c0,.0059,2.1821,2.9248,2.3228,3.1289a10.12945,10.12945,0,0,0,.6948.8418,9.69232,9.69232,0,0,0,3.7095,2.6338,2.27663,2.27663,0,0,1,.5439.3555c1.4145,2.0058,3.0581,4.0615,3.604,3.8955.0029-.0078-.0664-.1553-.1499-.4131l.0024.001c-.038-.6738-.2719-1.6641-.2719-2.4717a6.55442,6.55442,0,0,1,.2719-1.8662,24.39393,24.39393,0,0,1,.8428-2.8184c.0376-.0713.0606-.1474.1011-.2177a.80119.80119,0,0,0,.1001-.2862,9.38971,9.38971,0,0,1,1.5537-2.6894,8.7091,8.7091,0,0,1,.8354-.7031c.188-.1358.1631-.2959.1226-.4834-.3003-1.4327-.666-4.4932-.8188-5.9541-.0855-.8262-.2691-1.6407-.4004-2.4581-.1949-1.2441-.3623-2.4902-.5865-3.7265a9.863,9.863,0,0,0-.4799-1.7627c-.2622-.6807-.6289-1.3184-.9097-1.9951a11.73231,11.73231,0,0,1-.5581-1.6211c-.3013-1.2061-.5532-2.4258-.8345-3.6358-.1553-.664-.3047-1.334-.4902-1.9873q-.769-2.69085-1.5655-5.3759c-.3105-1.0528-.6391-2.1006-.9482-3.1475-.2139-.7266-.456-1.4492-.602-2.1885a41.01041,41.01041,0,0,0-1.7623-5.5361c-.4199-1.21-.9052-2.3965-1.3002-3.6143-.3746-1.1601-.6617-2.3476-1-3.5215-.8672-3.0117-1.7437-6.0234-2.606-9.0361-.377-1.3027-.73-2.6084-1.0908-3.9141-.044-.1513-.0625-.3115-.1113-.4628-.0938-.293-.2149-.5772-.3008-.8731-.1158-.4082-.1924-.8271-.3159-1.2353-.2305-.7725-.4791-1.5372-.7242-2.3028-.0068-.0215-.0576-.0342-.0932-.0547a1.18135,1.18135,0,0,0-.107.753C217.4888,144.8447,217.5166,146.7119,217.5405,148.584Zm75.7437,60.5185-7.7334,4.8418-3.9107,6.419a29.60535,29.60535,0,0,1-2.7514,6.6269c-.0156.0283-.02.0518-.0337.0801-.4663.3652-.8941.6699-.8941.6699l-.6474.5244-.0117.1455s-.0493.4571-.083.6856c-.0293.2041-.0923.4072-.1036.6152-.0586.9463-.1147,1.9014-.1572,2.8526-.081,1.7939-.1377,3.5878-.2319,5.3828-.0293.5576-.1528,1.1113-.232,1.667-.0786.5419-.1596,1.0878-.247,1.6992.5532-.7403,1.0976-1.3965,1.5703-2.1045.5664-.8486,1.0703-1.7403,1.6035-2.6133.2383-.3926.4443-.8018.6543-1.209a4.34756,4.34756,0,0,0,.6045-.0937l2.7949-3.9746-4.2876,9.9951-1.1123.6943c-.2016.3955-.3994.792-.5996,1.1875-.0991.1963-.1509.4131-.2407.6123a7.70647,7.70647,0,0,1-.3623.7578,2.42987,2.42987,0,0,0-.4317,1.4112,1.03788,1.03788,0,0,1-.0224.2177c-.1309,1.0166-.2949,2.0303-.3848,3.0528-.1348,1.5322-.3667,3.0547-.6411,4.5683a14.28724,14.28724,0,0,0-.2632,3.0967c.0044.1113.0181.2197.0249.334h.0698c.0943-.2158.1885-.4326.2789-.6504q1.2882-3.0396,2.5708-6.0791c.4028-.9531.8076-1.9082,1.2241-2.8545.4497-1.0283.875-2.0713,1.3745-3.0723.8071-1.6123,1.6665-3.1972,2.5078-4.7959.5444-1.0351,1.0732-2.0752,1.6377-3.0986a31.88041,31.88041,0,0,0,1.5366-3.3984c.2608-.6397.4702-1.3047.7217-1.9541.2749-.7149.5693-1.4219.8574-2.1348.209-.5195.4341-1.0332.6319-1.5566.2612-.6963.497-1.3985.7495-2.0967.1098-.3096.229-.6182.3437-.9268.1846-.5009.3711-1.0029.5469-1.5068.1977-.5615.418-1.1211.5713-1.6963.1992-.7637.3916-1.5303.5859-2.2969,2.1045-5.8652,5.6294-13.4297,7.061-16.4384Zm-35.0957,11.7324a16.30767,16.30767,0,0,1,.4712-2.0673c.3227-.9463.7436-1.8575,1.1157-2.7813.2759-.6807.5605-1.3545.8076-2.042a6.50042,6.50042,0,0,1,.917-1.8594c.291-.3779.5869-.747.8828-1.1201.0337-.0459.0767-.0996.1123-.1474.4239-.3125.9038-.6622,1.5078-1.0909-.0249-.1914-.0542-.3447-.0673-.5039-.106-1.2168-.209-4.0791-.3125-5.2939q-.3246-3.83355-.646-7.667c-.0835-.9854-.1573-1.9717-.2408-2.959-.1347-1.582-.2744-3.1631-.4096-4.7461q-.1356-1.6098-.2642-3.2119-.13695-1.66545-.269-3.3252c-.0259-.3408-.0318-.6816-.0655-1.0254-.1132-1.1631-.2392-2.332-.3471-3.4961-.0879-.9492-.1553-1.8984-.2354-2.8506-.0908-1.1172-.1977-2.2373-.2788-3.3525-.061-.8672-.0933-1.7314-.1362-2.6006-.0156-.3271-.0235-.6582-.0371-.9873-.0176-.501-.0352-1.001-.0572-1.5-.0127-.2676-.0439-.5371-.0507-.8047-.0484-1.8203-.0855-3.6416-.1329-5.4609-.0293-1.0137-.0542-2.0254-.1098-3.0371-.0557-1.001-.1104-2.002-.2344-2.9961-.2495-2.0459-.5488-4.0889-.8242-6.1328q-.4527-3.32235-.8965-6.6426c-.0933-.6992-.1553-1.4063-.2476-2.1104-.2045-1.5224-1.6582-10.3642-1.6582-10.3642a11.75018,11.75018,0,0,1-.247,1.5976.53981.53981,0,0,0-.0132.2159c.0322.2812.9785,15.4843,1.0752,16.996.102,1.5879.1885,3.1719.3047,4.7559.084,1.168.2124,2.335.3134,3.5029.0381.4268.0713.8526.1089,1.2793a1.47322,1.47322,0,0,0-.125-.2324c-.1748-.25-.4604-.7197-.8051-1.3047-.023-.2265.3711,12.3096.3711,12.3096l-3.2046-30.6299a23.07416,23.07416,0,0,0-1.458,5.0742,12.8286,12.8286,0,0,1-1.4639,2.8868s.0122.3505.0337.9511c-.041.5127-.0791.9942-.1143,1.4678-.0415.5596-.0693,1.1211-.1157,1.6807-.106,1.292-.2202,2.581-.3286,3.8711q-.13485,1.6083-.2608,3.2158c-.0878,1.0449-.1933,2.0918-.2509,3.1386-.0357.6329-.0069,1.2715.0136,1.9082.064,1.9268.1573,3.8584.2022,5.7901.0249,1.1689-.0449,2.3418.0293,3.5127a20.60575,20.60575,0,0,1-.0864,4.2803c-.106.7226-.1001,1.4599-.1451,2.1894-.0205.3701-.0337.7354-.0639,1.0996-.0362.3877-.0777.7754-.1372,1.1612-.0664.4169-.168.8339-.2373,1.2558q-.4674,2.8359-.9224,5.6758c-.1094.6894-.2251,1.3721-.3115,2.0625-.106.8594-.1846,1.7197-.2744,2.582-.0601.5821-.1329,1.1651-.1802,1.7461-.0493.624-.0698,1.2481-.1148,1.8692-.0483.6816-.1469,1.3613-.1665,2.0429-.0547,2.1612-.0839,4.3262-.1259,6.4873-.0254,1.2442.0478,4.0567-.1353,5.3604-.0327.1338-.0415.2314-.0005.2549-.1606,1.3193.6944,1.0117,2.4522,2.4814a.72236.72236,0,0,1-.0308.0752,2.39246,2.39246,0,0,0,.3193.293,3.32349,3.32349,0,0,1,.5767.4404l.0049.0049a5.69542,5.69542,0,0,1,.4917.5332,8.47131,8.47131,0,0,1,1.5903,3.0635,10.87377,10.87377,0,0,1,.3106,2.0215c.0717.7041.082,1.416.1435,2.1191.0586.6816.1553,1.3574.2266,2.0391.1323,1.2998.1347.9648.3022,2.2636.0806.6299.1328,1.2657.1768,1.9024a26.73939,26.73939,0,0,0-.7705,4.8174c-.0606.7304-.1465,1.4169-.2495,2.0693-.0059-.0674-.0069-.1358-.0127-.2041-.0752-.9375-.17-1.8731-.2486-2.8115-.1025-1.1895-.4643-2.6016-.5981-3.7871a6.27618,6.27618,0,0,0-.1553-.9278c-.0137-.0752-.043-.1494-.0635-.2246a1.68522,1.68522,0,0,0-.0605.5479,1.45394,1.45394,0,0,1-.2461.8271c-.1362.2119-.2529.4414-.3804.6631a2.84144,2.84144,0,0,1-.3022.499,10.19031,10.19031,0,0,1-1.8516,1.9014c-.0156.0098-.0205.042-.0224.0478.0922.3321.1953.9834.3867,1.586a13.66036,13.66036,0,0,1,.7695,3.0078c.0845.541.1191,1.0879.1821,1.6357.0967.8457.232,1.6924.2935,2.543.0644.875.0644,1.7578.0854,2.6367.0162.6231,0,1.2481.0372,1.8711.0122.2061.02.4111.0292.6182-.0459.6035-.0722,1.2324-.0644,1.9033.0024.2334.0102.4912.0225.7637a9.28419,9.28419,0,0,1-.1875,1.083,1.65389,1.65389,0,0,1-.5489,1.0732c.0786.3321.1529.6162.2163.9004.3057,1.4082.6006,2.8184,1.0132,4.1973.1079.3603.208.7285.2857,1.0967.1113.538.1904,1.081.2978,1.621.0156.0733.0396.1456.0586.2168.2344,1.5196.4771,2.8936.6992,3.9395.0039.0176-.0029.0312.003.0488.0122.042.0229.085.0346.126.0249.1123.0503.2354.0742.3398a.48456.48456,0,0,0,.1021.2891c.1143.3936.2353.7852.331,1.1846.1778.7295.3082,1.4756.4737,2.2158.1484.6611.3252,1.3242.4722,1.9893.1821.8125.3374,1.6259.5209,2.4355.2598,1.1553.4991,2.3154.8106,3.4561.2432.8828.5796,1.7421.8818,2.6093q.5589,1.60845,1.1241,3.21c.0288.083.0727.1621.1391.3008.0508-.4395.0933-.8018.1397-1.1651.1088-.8711.2251-1.7451.333-2.6181.1147-.9307.2212-1.8662.3349-2.7979.0742-.6172.1621-1.2373.2329-1.8535.0752-.6416.126-1.2871.2061-1.9268.0605-.4951.1787-.9843.2246-1.4794.0752-.8379.1104-1.6836.1719-2.5215a2.96026,2.96026,0,0,1,.1181-.8662,7.41682,7.41682,0,0,0,.3355-1.4229c.1675-.8574.3393-1.7187.5059-2.5644-.0157-.0166-.0313-.0342-.0474-.0518.0674-.416.1357-.8848.2046-1.416.3506-1.7676.6548-4.7412.9731-6.4795.1856-1.0039.3106-2.0234.4409-3.0391.0957-.7256.1509-1.456.2354-2.1855.1616-1.4033.331-2.8067.4976-4.2158.0947-.8106.1889-1.6221.2719-2.4356.104-.9814.2364-1.9668.2837-2.9521.1123-2.294.1797-2.9463.2769-5.2412a.43115.43115,0,0,0-.2432-.4336,5.80874,5.80874,0,0,1-.9272-.6944,8.65128,8.65128,0,0,1-2.0459-3.4228,12.75426,12.75426,0,0,1-.4512-1.8828c-.1148-.6573-.1621-1.3291-.2393-1.9942-.0273,0-.0576-.0029-.0844-.0029-.0611.2705-.1441.5381-.1778.8115-.2124,1.7305-.4311,1.8194-.6211,3.5547-.1909,1.749-.2724,3.5049-.31,5.2627-.2881-1.877-.646-3.7949-1.0249-5.7041l-.0025-.0088a4.17685,4.17685,0,0,0,.1182-.7891A44.68356,44.68356,0,0,1,258.1885,220.8349Z" style="fill: #d70926"/>
      <path d="M274.8018,121.6992l.6875-3.4941-.0801-2.2793H264.4658a22.46533,22.46533,0,0,1-6.5937-1.4004l2.2226,14.1396c.0371.0049.0811.0127.1162.0186l1.9034.166,12.5722.0205.6153-.0049h5.5605V115.9277h-2.5ZM221.1777,27.8769h5.2891V4.9062l9.8672.002V.0019H225.5508L222.0957,0H211.3086V4.9082h9.8691Zm37.3721,36.7774h18.961V51.7168l-20.1749-.002,1.125,8.5625ZM244.959,104.9804c-4.2246-7.4277-4.5918-13.1386-4.6338-14.1015V73.1943c-.001,5.2568-.0029,12.499-.0117,12.4502l.0029-20.9922,13.7442.002.4179-3.6328,1.0303-9.3067-35.167-.0058a7.025,7.025,0,0,1,2.8799,1.0879l.0127.0058a16.37968,16.37968,0,0,1,2.583,2.2871,6.78127,6.78127,0,0,1,.4951.8438V83.1054l.2793,10.75.0195.168a42.72315,42.72315,0,0,0,3.2559,12.3203s1.4316,3,1.6084,3.336a31.05172,31.05172,0,0,0,2.1416,3.2558l2.8096,9.3399,5.0332,7.1806-1.961-8.6123a16.84137,16.84137,0,0,0-.3261-1.8105c-.7286-2.6953-1.3311-5.2891-1.3311-5.2891l1.2617,1.1289-1.2617-12.082,4.7959,18.875a43.54249,43.54249,0,0,0,10.1348,5.0947l1.8652-8.626.3623.9043.9365-5.2519C251.6543,111.9941,247.1494,109.0722,244.959,104.9804ZM186.1572,58.5761l-5.4091-6.3691-.2803-.4883H167.1787l14.1621,26.2598V64.6504h27.5616V51.7187H183.5347Zm.2637,99.126-10.293-13.1826,4.0039,8.3447-1.0625.4053,3.0049,4.1533.294.2383h-5.0059v33.5166h7.9619c9.8926,0,15.1241-5.8027,15.1241-16.7812C200.4483,163.8652,195.5947,158.125,186.4209,157.7021Zm-1.5,28.6553h-2.1123v-23.876h2.1123c7.0039,0,9.9912,3.5625,9.9912,11.9151C194.9121,182.7793,191.9248,186.3574,184.9209,186.3574Zm108.4063-163h-3.0508c-.8008-.1113-5.543-1.2988-6.8848-3.8477a12.5107,12.5107,0,0,1-1.5918-4.4531h7.916V10.1484h-7.9043V4.25h5.7422l5.6738.0019V.3691L274.044.3711a4.38007,4.38007,0,0,1,2.3891,1.5429c.0093.0098.0152.0176.0249.0274V13.9551h-.0097l.0097.1484v.1914h.0078l.041.75a14.96634,14.96634,0,0,0,2.6719,7.6074c3.1934,4.2637,8.3321,5.3028,9.8477,5.5469l.3691.0605.0313.0039.0136.002h3.8868Zm211.2226,19.543a3.91223,3.91223,0,0,0,1.3027.83,4.02016,4.02016,0,0,0,1.543.3008,4.18108,4.18108,0,0,0,1.5313-.289,3.9574,3.9574,0,0,0,1.2949-.8418,4.01148,4.01148,0,0,0,.8789-1.2715,4.044,4.044,0,0,0,0-3.1641,3.64268,3.64268,0,0,0-.8731-1.2617,4.07769,4.07769,0,0,0-2.832-1.1309,4.471,4.471,0,0,0-1.5527.2969,4.31654,4.31654,0,0,0-1.293.834,4.00193,4.00193,0,0,0-.8808,1.2695,3.8268,3.8268,0,0,0-.3184,1.5743,3.94253,3.94253,0,0,0,1.1992,2.8535Zm-.1582-4.1543a3.05755,3.05755,0,0,1,.6992-1.0528,3.27851,3.27851,0,0,1,1.0313-.7129,3.42543,3.42543,0,0,1,1.2734-.2402,3.36753,3.36753,0,0,1,1.2637.2402,3.20283,3.20283,0,0,1,1.0195.7032,3.27564,3.27564,0,0,1,.6914,1.0508,3.55577,3.55577,0,0,1,.2403,1.3125,3.45961,3.45961,0,0,1-.4219,1.7011,3.20554,3.20554,0,0,1-1.1699,1.1934,3.24038,3.24038,0,0,1-1.6231.4297,3.2863,3.2863,0,0,1-1.6426-.4297,3.33049,3.33049,0,0,1-1.1718-1.1934,3.36752,3.36752,0,0,1-.4297-1.7011A3.5778,3.5778,0,0,1,504.3916,38.7461ZM350.1455,51.7168V74.6543l8.6113-22.9356Zm-3.7344,32.8847L322.0498,82.041l-3.3515,6.0273,1.0019-6.2754-9.5625-1.0058V51.7148l-20.2695-.0058a8.52573,8.52573,0,0,1,6.2617,4.9043v72.1855h2.2676l1.1679-1.7881,3.7422-8.7451-1.3359,10.0166-.0859.3037,8.2539-8.25V93.7969l31.5742,3.3183ZM162.9307,186.3574H147.9326V157.6611h-5.4453v33.5166h20.4434ZM506.6377,40.334h.7383l1.1133,1.83h.7168l-1.2051-1.8593a1.49783,1.49783,0,0,0,.5605-.1739.8607.8607,0,0,0,.3868-.3769,1.1444,1.1444,0,0,0,.1484-.6074,1.05441,1.05441,0,0,0-.3692-.9121,1.75675,1.75675,0,0,0-1.1191-.293h-1.6035V42.164h.6328Zm0-1.8496h.8652c.6192.0078.9219.2109.9219.625,0,.2949-.082.4785-.2558.5605a1.82742,1.82742,0,0,1-.7657.1211h-.7656ZM243.3672,1.7109V28.0586h5.2915V15.541l14.0454,1.4785V33.709l1.4258-.9434a10.60988,10.60988,0,0,0,2.5156-2.5273,7.50321,7.50321,0,0,0,1.3418-2.9571l.0059-.0449.0019-.0195.0039-.0137V.1855h-5.291V12.084l-14.0498-1.4746L248.6587.1836h-7.6724A4.36361,4.36361,0,0,1,243.3672,1.7109ZM84.0996,129.3965l7.5254-11.1329-.0332-66.5468L71.5469,51.709a7.01112,7.01112,0,0,1,2.8828,1.0879,7.15332,7.15332,0,0,1,3.1582,3.2773v55.0664l-5.5488-2.4316-.9649-.4317c-.0566-.0234-.0957-.041-.2011-.0801l-2.0586-.9033c-3.5298-1.6631-10.5918-5.9502-13.2051-12.4443a37.62687,37.62687,0,0,1-2.7422-10.6875l-.0127-32.4473H38.8594v.0039h-.0508v29.209c-.0098.3399-.0195.8125-.0195,1.3399,0,.4492.0058.9375.0234,1.4765v27.332L33.25,108.6406l-1.084-.4863-.0019.0146-2.1348-.9385c-3.5293-1.664-10.5957-5.9531-13.208-12.4472a37.75727,37.75727,0,0,1-2.7437-10.6895l-.0102-32.4472H.0742L.0469,80.2871C.0215,80.7695,0,81.4355,0,82.2031a40.5486,40.5486,0,0,0,4.7363,19.4824,41.80546,41.80546,0,0,0,20.8301,18.0723l19.7481,9.5713,7.5029-11.1162v-5.2891l.6279.5039a42.61821,42.61821,0,0,0,10.9092,6.4024ZM124.25,161.54v-3.8789H113.1621V161.54h2.8213v25.7578h-2.8213v3.8799H124.25v-3.8799h-2.8193V161.54Zm43.0801-32.7383h9.0137l4.1025,6.3975,5.7109,8.041-3.5742-9.291c-1.6347-1.6406-3.3828-3.5225-3.3662-4.0557.0303-1-2.8027-6.7783-2.8027-6.7783l3.1455,3.5918,1.2217,2.0947h.5595V95.1347l-15.5332-43.416-26.042-.0019V64.6523H167.332ZM113.4356,56.8574V117.959l14.0058,10.9814V51.7148L107.082,51.709a8.49445,8.49445,0,0,1,6.3536,5.1484ZM88.1904,180.3105c-.0996.4512-.3418,1.5977-.6543,3.5293-.3925-2.6933-.7822-4.4355-.9941-5.2871l-5.3145-20.8916H76.9834l-5.5332,22.6377c-.0752.2959-.3164,1.333-.6641,3.5352-.3535-2.3731-.7236-4.1465-.9882-5.2813l-5.2227-20.8916H59.46l8.5293,33.5166h5.1816l4.8652-19.375a39.37409,39.37409,0,0,0,.8721-4.8076,43.34043,43.34043,0,0,0,.8233,4.7217l4.8642,19.4609H89.96l8.3896-33.5166H93.5459Zm329.8799,4.1084c-1.1367-3.1084-2.4472-6.3164-3.9004-9.5576l-7.5664-16.9678-.1035-.2324h-6.875v33.5166h4.7305V164.0146a91.37641,91.37641,0,0,0,3.4531,8.709l8.2969,18.4541h6.6933V157.6611h-4.7285Zm-38.4277-4.0224V176.25l-1.5117,1.8906,1.5117-4.6514v-.1396l2.6055-4.0371,2.4023-6.0215-5.0078,6.5039V157.6611h-4.9551v20.3164c0,6.4707-1.7305,9.2295-5.7812,9.2295-3.6407,0-5.336-2.6621-5.336-8.3779v-21.168H358.125v22.0635c0,7.9336,3.8125,12.3027,10.7363,12.3027C375.3106,192.0273,379.6426,187.3525,379.6426,180.3965ZM321.082,176h11.0762v15.1777h5.4473V160.0996l1.1504-1.8711,3.539-9.9492-4.6894,8.2246-.7754,1.1572h-4.6719v13.5205H321.082V157.6611h-5.4453v33.5166h5.4453Zm100.7979-59.4239c-2.3281-.1757-15.5527-3.5878-19.5059-10.9414h-.0039a37.41143,37.41143,0,0,1-4.4863-13.2265l-.0625-.4336h22.1602V79.0312H397.9092V62.6015l16.4277.002,15.4668.0019V51.7187l-52.6406-.0097a8.32438,8.32438,0,0,1,6.5644,5.9453v31.998h-.0019l.0019.0449v.1524h.0079l.125,2.4443c.2656,3.624,1.4199,12.9619,7.3886,21.0459,8.8145,11.7705,23.0625,14.667,27.2618,15.3438,0,0,.7675.1289,1.0234.166l.0859.0146h10.4571V116.5801S423.9248,116.7314,421.8799,116.5761ZM364.126,126.9648l.0176-.1328.0039-.0342.0019-.0039V51.7187H359.542L347.6787,97.7422,350.1436,98v14.7812l6.2011-11.7324-2.914,10.3672-3.2871,7.8652V144.247l3.3691-2.2314a29.36312,29.36312,0,0,0,6.9395-6.9639A20.57451,20.57451,0,0,0,364.126,126.9648Zm73.1494,35.5166h9.5371v28.6963h5.4453V162.4814h9.5371v-4.8203H437.2754Zm83.2061-36.8369a154.79325,154.79325,0,0,1-13.1836-10.6631l-.5098-.4521c-4.418-3.9629-8.541-7.9688-12.2559-11.5782-2.0742-2.0058-4.6484-4.9042-7.1289-7.6425-1.5996-1.7657-3.1484-3.4551-4.5625-4.8457l-.2968-.2852,7.7441-6.9023a35.75044,35.75044,0,0,0,7.2012-7.1719c2.459-3.6055,3.1699-8.2149,3.1933-12.9766.0215-4.5566.0371-8.9238.0371-8.9394l.0039-2.4629L442.249,51.709a7.02021,7.02021,0,0,1,2.8809,1.0879,7.20148,7.20148,0,0,1,3.0273,3.0019V83.039h-.0058V96.3564l.0058,32.4424h14.0039V95.9707h6.4922l.084.0449a32.78528,32.78528,0,0,1,6.6699,5.7871c2.9629,3.0742,6.3399,6.8496,10.0118,10.3711,4.5546,4.3731,9.6601,9.2656,15.2011,13.959a115.71625,115.71625,0,0,0,17.8496,12.7314l3.2461,1.8086V126.6406ZM470.9736,82.9297l-.1113.1074H466.501v-.0039h-4.3399V62.7031l8.9649.0098,3.0332.0019,6.1328.0059,6.5234.0058v3.084a2.11284,2.11284,0,0,1-.0566.2813,9.16971,9.16971,0,0,1-.4473,1.3125c-.0566.1347-.1211.2812-.1855.4062-.0567.125-.1172.211-.1465.2715-.1094.2119-.2187.4316-.3691.6699-.2793.4395-1.9161,2.1045-3.4746,3.6758ZM125.8374,221.5195h14.3364v-3.3301H106.8399v3.3301h14.5717v25.3438H105.5869v3.3291H141.584v-3.3291H125.8374Zm9.9976,10.2119-.0244-.0683-.0171-.0479.0073-.0488.0107-.0733a45.08985,45.08985,0,0,0,.4307-6.9736l-3.665.0313a27.273,27.273,0,0,1-.8482,9.1054,22.95419,22.95419,0,0,1-4.3003,7.2334l2.3418,2.2207a27.98863,27.98863,0,0,0,4.3067-6.0068l.2651-.5234.1826-.3604.1758.3643.2544.5283c.1743.3603.3525.6982.5303,1.0049a35.22752,35.22752,0,0,0,3.8955,5.1972l2.209-2.6172a30.12526,30.12526,0,0,1-3.8096-4.6406A25.10711,25.10711,0,0,1,135.835,231.7314Zm-21.1534-.3867a41.93475,41.93475,0,0,0,.5562-6.6387l-3.6704-.0459a27.73582,27.73582,0,0,1-1.0923,9.0957,22.76523,22.76523,0,0,1-4.4707,7.1114l2.2964,2.2812a27.59957,27.59957,0,0,0,4.6445-6.3008l.2608-.5127.1806-.3535.1768.3555.2563.5146c.1402.2813.2735.5352.4009.7637a33.45162,33.45162,0,0,0,3.6929,4.915l2.1929-2.6152a29.2463,29.2463,0,0,1-3.5938-4.3652,22.03281,22.03281,0,0,1-1.8096-3.9531l-.0263-.0733-.0181-.0498.0093-.0527Zm276.3067,7.4004.1728.0947c1.1597.6377,2.1914,1.2588,3.0704,1.8496l1.0957-1.5478a35.39428,35.39428,0,0,0-3.334-1.9043Zm9.3843,9.1601-.3169.0293-.2188.0206V236.8603h-3.0171v11.3838l-.185.0137-.7998.0596.2802,2.5029a87.34741,87.34741,0,0,0,8.731-1.6231l-.1938-1.8076C403.2627,247.5937,401.8242,247.7666,400.3726,247.9052Zm-.1773-4.706-.1806.2344.1323.0869.4487.2959c.9439.6211,1.7974,1.2324,2.5396,1.8183l1.1904-1.4472c-.9282-.6983-2.0083-1.4287-3.2153-2.1748Zm-9.3769.0928.3613.2207c1.0273.625,1.9448,1.2392,2.73,1.8271l1.1396-1.4844c-.9155-.6523-1.9839-1.332-3.1811-2.0234Zm-8.5528-19.211-.0424-.0996.06-.0908.0874-.1309a57.01708,57.01708,0,0,0,3.4849-6.1308l-3.1621-1.1348c-.6021,1.2373-1.1934,2.3828-1.7588,3.4072l-.2363.4288-.1626.2949-.1812-.2842-.2627-.4131a31.5964,31.5964,0,0,0-2.3271-3.1982l-2.8262,2.1045a32.34934,32.34934,0,0,1,3.2778,4.9296l.0874.1651.0601.1142-.0786.1016-.1138.1475c-.9614,1.2461-2.1987,2.6699-3.6782,4.2373l1.6792,2.4756c1.1074-1.1065,2.1137-2.1514,2.9931-3.1123l.3428-.3741.2368-.2588.1021.336.1479.4853a19.29186,19.29186,0,0,1,.6431,3.0752l.0122.0889.0083.0635-.0293.0556-.042.0811c-.7436,1.4375-1.4624,2.7021-2.1367,3.7588a31.78574,31.78574,0,0,1-3.9209,4.6015l1.6226,2.5215a37.746,37.746,0,0,0,4.1767-4.5654l.502-.6719.3466-.4638.0137.5791.0195.8388q.019.84825.0191,1.7744c0,3.6006-.3545,5.625-1.1157,6.3711a4.36,4.36,0,0,1-3.1734,1.0899h-1.5254l.6797,3.6465,2.022.0166a5.66629,5.66629,0,0,0,4.8525-2.3243c1.1592-1.5927,1.7471-4.5537,1.7471-8.7998.0122-6.6523-.7915-11.8984-2.3887-15.5918Zm27.5005,23.7471c-.5444-.0771-.8042-.6055-1.0083-1.1641a14.51806,14.51806,0,0,1-.459-3.0293c-.1001-1.333-.1533-3.6113-.1577-6.7744h-2.7104q-.0117.96975-.0127,1.9395v.6767c.039,1.7276.1308,3.4493.2724,5.1172.2237,2.4864.7012,4.1426,1.419,4.9199a3.22509,3.22509,0,0,0,2.4214,1.1739,2.22988,2.22988,0,0,0,1.6797-1.1094,12.304,12.304,0,0,0,1.4672-2.9922l-1.8554-.7305C410.5142,247.3789,410.2661,247.8281,409.7661,247.8281Zm-18.7832-.043-.3232.0391-.2241.0273V236.8603H387.419v11.293l-.1792.0186-.2603.0263c-.4922.0498-.9858.0908-1.4844.125l.2783,2.4932c3.0499-.4414,5.8799-.9844,8.4195-1.6162l-.1948-1.8125C393.021,247.5293,392.0078,247.6631,390.9829,247.7851Zm-.8554-27.7597a32.05505,32.05505,0,0,0,2.7055-2.8418l-2.8642-.5606a18.772,18.772,0,0,1-2.8716,3.1924.81793.81793,0,0,0-.1338.6729,27.85376,27.85376,0,0,1,3.3081,3.7021l2.8765-.6201a24.46808,24.46808,0,0,0-2.9961-2.7969l-.2691-.2129-.1855-.1465.1758-.1591Zm10.8178,9.8886-.3481-.1445.3154-.207.4575-.2998q.99765-.6534,2.0908-1.4033l-.5727-.7432-.1758-.2276-.4516.2754-.876.5371c-.8262.5059-1.5987.9522-2.2964,1.3262l-.1187.0635-.082.0439-.0864-.0341-.1255-.0498a35.04592,35.04592,0,0,0-3.9214-1.295l-.7622-.2031-.4092,1.1123c.8736.2617,1.6592.5108,2.3369.7402l.8311.2813.5742.1943-.5771.1856-.835.2685c-.9048.2911-1.9395.5723-3.0801.8379l.5967,1.3174.9658-.2734c1.1963-.3379,2.3726-.71,3.4956-1.1065l1.1323-.5254.0801-.0371.0811.0342.1191.0498c.9712.4151,2.1753.958,3.5801,1.6123l.0698.0332.5786-1.2461c-.7353-.332-1.435-.6367-2.0825-.9062Zm-13.6045,4.7139h21.8189v-9.2842H387.3408Zm3.7998-7.834h14.2183v6.3838H391.1406Zm14.0298-6.6123a32.48182,32.48182,0,0,0,2.8604-2.998l-2.8682-.5625a21.74248,21.74248,0,0,1-3.02,3.3486.8183.8183,0,0,0-.1387.6719,28.14858,28.14858,0,0,1,3.3008,3.5517l2.8584-.6172a25.067,25.067,0,0,0-2.9629-2.6406l-.2788-.2129-.1924-.1465.1802-.1611Zm-7.3657-.1562a31.85624,31.85624,0,0,0,2.7051-2.8418l-2.8638-.5606a18.7648,18.7648,0,0,1-2.8711,3.1924.82033.82033,0,0,0-.1352.669,28.18252,28.18252,0,0,1,3.3012,3.5517l2.8584-.6162a24.89978,24.89978,0,0,0-2.9634-2.6406l-.2783-.2119-.1919-.1465.1792-.1612Zm3.4326,17.2119-1.001,1.5029.3252.1777c1.0957.5987,2.0762,1.1924,2.917,1.7676l1.0889-1.5381A34.1174,34.1174,0,0,0,401.2373,237.2373Zm-73.164-13.208-.0538-.1104.0733-.0986.1079-.1426a32.08755,32.08755,0,0,0,3.6099-5.874l-3.71-1.4092a24.78691,24.78691,0,0,1-1.7363,3.3506l-.2315.3779-.1606.2608-.1743-.252-.253-.3642c-.7119-1.0274-1.498-2.0684-2.3398-3.0987l-3.2461,1.8174a44.33954,44.33954,0,0,1,3.2837,5.0352l.0972.1767.0673.1211-.0908.1055-.1308.1523a52.89727,52.89727,0,0,1-4.6436,4.7227l2.3408,2.4638a39.78782,39.78782,0,0,0,3.6563-3.3427l.3174-.3272.2197-.2265.1108.2959.1607.4267c.3032.8037.5586,1.5752.7583,2.294l.0307.1093.0215.0752-.0361.0703-.0528.1016a34.432,34.432,0,0,1-7.5546,9.3447l2.1508,2.6231a34.84226,34.84226,0,0,0,5.5533-5.6875l.5234-.71.3608-.4902v1.4912a29.64779,29.64779,0,0,1-.5,5.9463,6.87641,6.87641,0,0,1-1.2763,3.2305,2.85718,2.85718,0,0,1-2.1206.8115h-3.5738l.5161,3.8808,2.3741.0166a20.56932,20.56932,0,0,0,3.5254-.207,5.50275,5.50275,0,0,0,1.8535-.7373,5.22607,5.22607,0,0,0,1.6152-1.8935,13.11365,13.11365,0,0,0,1.2661-4.1387,41.02265,41.02265,0,0,0,.4727-6.7139,29.82124,29.82124,0,0,0-3.1026-13.3164Zm18.2236,11.0293h7.9512V231.416h-7.9512v-9.9297h8.8325v-3.5068h-2.3462l-1.7099,1.0254,1.124-2.833,1.0967-6.4063-4.3379,8.2139H333.4878v3.5068h8.2256v9.9297h-7.9126v3.6426h7.9126v11.6728h-9.9102v3.7608h24.0513v-3.7608h-9.5576ZM186.315,208.8222l3.3603,8.6231h-.0234l.7212,1.9082-2.4297-1.9082H175.3511v3.1933h8.2256v4.9346h-6.8545v19.3311h3.5449V228.7265h3.3096v22.2696h4.0737V228.7265h3.4277v11.0459c0,.4131-.1528,1.3721-1.5669,1.3721h-.7168l.565,3.4668h1.875a4.30131,4.30131,0,0,0,2.6889-.8398,2.59319,2.59319,0,0,0,1.0323-2.1963v-16.002h-7.3052v-4.9346h8.5977v-3.1933h-2.8497Zm-21.3643,24.2725h8.7158V221.5195h-4.6577l.1187-.2783.1713-.4024c.5884-1.3837,1.087-2.6142,1.4839-3.663l-4.1714-.6104c-.2548.9648-.7285,2.5166-1.4096,4.6162l-.065.2002-.0449.1377h-4.0967V250.584h3.9556v-1.3907h5.3472v1.0772h3.7998V236.5996h-9.147Zm0-8.8916h4.9556v6.2666h-4.9556Zm5.3472,15.1982v6.9913h-5.3472v-6.9913Z" style="fill: #000"/>
    </g>
  </g>
</svg>
